<svg xmlns="http://www.w3.org/2000/svg" width="30.979" height="21.686" viewBox="0 0 30.979 21.686">
  <path id="Icon_awesome-car-side" data-name="Icon awesome-car-side" d="M26.333,9.995h-.774L20.293,3.413A3.1,3.1,0,0,0,17.873,2.25H7.519A3.1,3.1,0,0,0,4.643,4.2L2.323,10.1A3.091,3.091,0,0,0,0,13.093v5.421a.774.774,0,0,0,.774.774H3.1a4.647,4.647,0,0,0,9.294,0h6.2a4.647,4.647,0,1,0,9.294,0h2.323a.774.774,0,0,0,.774-.774V14.642A4.647,4.647,0,0,0,26.333,9.995ZM7.745,21.612a2.323,2.323,0,1,1,2.323-2.323A2.326,2.326,0,0,1,7.745,21.612ZM11.23,9.995H5.66L7.519,5.348H11.23Zm2.323,0V5.348h4.32l3.718,4.647Zm9.681,11.617a2.323,2.323,0,1,1,2.323-2.323A2.326,2.326,0,0,1,23.235,21.612Z" transform="translate(0 -2.25)"/>
</svg>
