<svg id="Group_25025" data-name="Group 25025" xmlns="http://www.w3.org/2000/svg"
    xmlns:xlink="http://www.w3.org/1999/xlink" width="431.254" height="600.362" viewBox="0 0 431.254 600.362">
    <defs>
        <clipPath id="clip-path">
            <path id="Path_28812" data-name="Path 28812" d="M431.254,153.258H0V-447.1H431.254Z"
                transform="translate(0 447.104)" fill="none" />
        </clipPath>
    </defs>
    <g id="Group_24876" data-name="Group 24876" transform="translate(0 0)" clip-path="url(#clip-path)">
        <g id="Group_24873" data-name="Group 24873" transform="translate(3.156 534.418)">
            <path id="Path_28809" data-name="Path 28809"
                d="M25.21,10.8l8.335-40.393S20.722-3.3,18.156-3.3-6.207-31.515-6.207-31.515"
                transform="translate(6.207 31.515)" fill="none" stroke="#bad825" stroke-linecap="round"
                stroke-linejoin="round" stroke-width="4" />
        </g>
        <g id="Group_24874" data-name="Group 24874" transform="translate(1.872 472.223)">
            <path id="Path_28810" data-name="Path 28810"
                d="M84.635,26.516S66.682-18.367,51.294-33.755,16.03-72.866,0-77.355" transform="translate(0 77.355)"
                fill="none" stroke="#bad825" stroke-linecap="round" stroke-linejoin="round" stroke-width="4" />
        </g>
        <g id="Group_24875" data-name="Group 24875" transform="translate(0.961 0.962)">
            <path id="Path_28811" data-name="Path 28811"
                d="M-160.41,147.145c-2.565-7.054-3.847-18.595-12.824-32.7S-209.14,75.333-209.14,75.333m62.193,73.094s-5.77-114.129-14.746-136.57-23.723-62.193-23.723-62.193m49.37,196.2s16.671-48.088,14.746-52.577-8.976-12.182-20.518-12.823,30.136-3.847,30.136-3.847,7.694-52.576-1.282-68.605-5.771-27.57-21.8-30.135-21.16-1.282-24.365-2.565a16.7,16.7,0,0,1-5.77-4.489s30.135,1.924,33.34,0,5.771-4.488,10.259-3.205-21.158-43.6-41.676-57.064-32.7-30.776-42.318-33.983-19.876-6.412-19.876-6.412,3.205,8.976,14.106,21.159S-168.1,4.163-161.693,37.5s10.259,109,10.259,109m243,0c-3.205-6.413-5.583-4.842-8.335-15.388-3.847-14.748,22.441-21.8,22.441-21.8S83.236,110.6,74.9,108.674,60.794,91.363,52.459,90.721s-21.158,1.924-23.082-.64,2.565-33.341,0-32.7S7.577,84.309,8.859,88.8-7.17,77.257-28.97,81.1s-29.494,37.829-33.982,41.035-10.9.64-14.106-5.771S-91.8,90.721-97.575,90.721m41.355,22.442c5.771.641,20.839-2.886,25.007-6.412S-13.9,81.425-11.658,81.745M32.583,92c2.884,1.282,10.578,8.976,11.861,12.5s4.81,15.069,7.054,18.595,13.143,17.632,15.708,19.556,6.733,4.488,5.771,8.335a71.764,71.764,0,0,1,13.343,7.595c6.047,4.535,19.653,10.581,34.77,10.581s5.1-14.329,5.1-14.329S124.912,71.486,62.718,50.968-42.435,50.968-70,63.792s-57.064,77.582-57.064,77.582m19.876-118.3S-77.378-43.6-72.89-44.886s6.733-3.207,12.183-.963S-47.884-39.116-46.6-40.72s-11.541-12.5-13.785-12.5S-38.267-71.5-38.267-71.5s26.929-7.693,37.509-6.731,16.029-8.336,20.2-8.015,39.753-.641,43.279-.321,20.839-8.014,25.968-18.914,19.876-23.082,22.12-23.4,13.785-3.527,16.35-2.886-21.479,16.671-21.479,16.671S85.159-86.883,82.594-83.036s-8.335,9.617-13.143,16.029S63.679-56.748,52.459-57.39,26.491-68.61,24.568-69.251,13.668-78.227,9.5-77.266s2.886,5.77,4.808,7.052S38.353-52.261,39-50.337s.961,6.412-3.207,8.335-12.5,4.489-13.144,8.015,1.6,8.656-.961,11.862a7.684,7.684,0,0,1-9.3,2.244c-2.886-1.282-31.418-20.2-37.83-19.556s-8.335.963-8.335,3.847S-35.7-27.575-29.29-23.407.845-10.264.845-10.264s14.1,4.81,9.617,9.3-30.135,27.571-33.02,32.7-10.58,17.312-10.58,17.312M-70,63.792s-.641-2.884-5.45-3.847a22.378,22.378,0,0,0-8.014-.32m-8.976,22.12S-75.134,35.58-71.928,27.566s28.852-56.424,34.3-59.629S-13.26-65.084-13.26-65.084L-3-77.906m-108.039,186.9s19.877-58.027,25.647-71.17S-54.3-18.278-45.64-32.7s33.662-44.882,33.662-44.882m139.133-54.178c-6.731-4.809-16.35-7.054-30.135-5.771s-30.456-.32-55.141,8.976S-38.267-71.5-38.267-71.5M-154-83.036s18.431-32.372,25.066-45.183c1.093-2.112,1.866-3.691,2.185-4.508,2.244-5.771,36.225-67,75.658-92.97s78.864-46.486,133.684-44.882,77.9,13.785,81.75,15.067,20.518,11.541,9.618,21.8-38.792,24.044-38.792,24.044-12.824,9.617-14.427,9.3.642-45.2-.961-46.807-3.205-7.694-3.526-5.129-9.3,48.409-10.58,52.9,0,13.785-9.938,17.632-23.723,11.541-29.815,10.9-9.617-2.563-11.22-8.014-12.182-59.95-12.182-59.95-1.6-10.58-4.168-10.58-3.205,5.129-3.205,5.129,6.091,59.629,5.129,60.59-10.58-2.884-16.992-3.205S-7.17-183.7-18.39-173.441c0,0-24.365,27.891-24.045,41.034s-16.35,11.222-16.669,7.694S-77.7-156.451-79.3-156.772s-.961-2.884-1.6-.32,11.22,30.775,13.464,35.264,5.129,13.785,1.924,18.914S-97.9-90.09-100.139-89.769s-6.733-.321-8.656-6.412-4.81-22.761-9.618-24.686l-8.015-5.77M54.7-178.892s-24.684,0-51.614,14.106S-43.4-128.88-43.4-128.88m-78.222,6.41-26.61,46.807M-205.293,10.9-230.94,54.5m-7.373-5.129,27.891-38.792M-94.37,61.227l-15.388.321M76.824-420.615c-.321,5.129-6.733,10.58-11.22,11.862s-24.044,7.373-33.02,11.862-48.409,62.834-50.973,66.362-18.595,12.182-36.548,6.412S-83.469-343.994-90.2-343.352s7.694,14.106,7.694,14.106S-53.013-311.935-45-310.011s-7.373,9.617-7.373,9.617-17.953,9.3-21.479,38.471C-73.21-252.307-85.714-260-85.714-260s-51.293-31.1-54.178-31.1-11.862-3.526-10.259,12.5l53.538,30.135s13.144,3.527,5.45,11.862-34.3,33.341-46.165,59.309S-149.19-145.55-149.19-145.55s-.077,11.469-8.335,16.029c-5.158.881-11.184-.858-24.686-4.168-21.158-28.21-49.013-13.882-36.546-21.479l-6.412,25.326-2.565,64.118s32.7,0,32.059,1.282-17.953,10.259-25.647,10.9-5.129,16.671-3.207,23.082,14.106,41.035,14.106,41.035,39.112-2.565,40.395-.641-3.847,7.694-18.595,8.976-17.311,1.282-17.311,3.847,7.694,42.316,14.106,53.858,3.847,12.824,3.205,16.03M-244.4-84.318l19.235-45.524m110.923-214.152s-36.548,43.921-43.921,54.18-48.088,75.978-51.935,86.879S-247.93-99.706-247.93-99.706m141.379-244.607s-42.318,50.331-49.05,59.629-42.958,72.452-46.484,82.711S-221-153.565-221-153.565m-8.977-.321s-16.991,4.489-19.877.642-2.886-29.815,3.207-44.561,49.691-92.329,54.178-95.856,8.976-10.58,16.991-7.054-5.329-2.311.961-16.99c6.733-15.709,12.183-17.312,31.738-23.082,13.648-4.027,45.2-4.489,47.447-4.489s7.694-20.837,43.279-10.259c13.785,0,8.336,1.6,21.158-1.923s28.212-27.57,28.212-27.57,24.044-24.365,29.173-25.647,8.657-8.657,19.235-9.939,31.1,0,31.1,0,1.923-6.731-31.1-8.655c-22.761,1.6-41.676,11.541-49.37,14.106,0,0-15.067,6.091-66.041,20.518s-93.291,60.911-93.291,60.911"
                transform="translate(251.727 429.27)" fill="none" stroke="#bad825" stroke-linecap="round"
                stroke-linejoin="round" stroke-width="4" />
        </g>
    </g>
</svg>