<svg xmlns="http://www.w3.org/2000/svg" width="1897.955" height="1385.957" viewBox="0 0 1897.955 1385.957">
  <g id="Group_25011" data-name="Group 25011" transform="translate(-49.447 39.754)">
    <path id="Path_28739" data-name="Path 28739"
      d="M52.351,788.444C69.3,694.439,624.264,615.32,698.231,568.5c93.985-59.491,343.022-237.376,110.582-177.417s52.57,97.348,151.978,89.778S1107.84,365.63,1271.6,425.729s258.183,316.84,344.24,295.53,112.469-121.012,121.841-137.82,44.987-138.2,11.248-183.019-84.353-61.63-138.712-97.113,61.858-74.7,31.865,31.747-26.242,106.451-26.242,126.994,0,57.894,43.113,67.232S1825.784,568.5,1825.784,568.5s84.351-11.207,67.48-48.557-26.242-61.628-26.242-61.628-33.74-26.146-43.113-20.543c-4.687,2.8-11.716,5.6-15.7,8.4s-4.922,5.6,2.578,8.4c14.994,5.6,69.355,5.6,67.48-9.338s0-31.747-18.745-26.146-54.361,28.014-65.606,26.146c0,0,22.494-50.424,44.987-54.159s26.242-11.2,31.865-7.47-5.623,22.409-5.623,22.409l-31.865-63.495s-28.118-54.159-33.741-44.822-18.745,26.146-5.623,42.954,48.736,3.735,52.484-7.47,22.494-16.808,28.118-22.411,7.5-26.144-13.122-29.881-31.867-18.674-31.867-35.482S1936.377,129.628,1942,107.216s5.623-65.363-29.991-78.436-52.486-54.161-58.109-74.7-13.122-121.392-31.867-132.6S1797.667-214,1758.3-212.134s-61.858,11.2-76.854,20.543-22.493,9.338-31.865,33.616-3.749,61.628-7.5,84.04-14.994,84.04-14.994,97.113-1.874,31.747,16.871,31.747,39.364,0,46.861-7.47,3.749-33.616-11.248-29.881-33.739,9.338-22.494,18.676,37.49,22.409,37.49,29.881-3.749,37.351,7.5,39.217c0,0,39.364,0,31.867-5.6s-26.242-1.868-20.619,18.674,28.117,26.146,41.239,29.881-5.623,42.954,11.246,63.5,26.244,44.82,44.989,39.217,69.355,9.338,84.349-29.879-14.994-104.582-56.233-117.655-133.088-61.628-144.334-85.908-35.615-106.449-28.116-138.2c0,0,1.71-3.408,4.7-8.427,5.86-9.84,16.628-25.868,29.041-34.525,18.745-13.073,3.749-20.545-9.371-13.073l-9.373,59.76a629.049,629.049,0,0,1-58.107-44.821c-29.993-26.146-35.616-29.881-16.871-41.086,8.841-5.286,36.033-12.648,61.311-17.777,28.316-5.744,54.233-8.686,49.282-2.765-5.719,6.837-49.282,2.765-84.351,37.351-19.564,10.69-25.607,30.829-29.991,24.278-11.248-16.808-5.625-218.5-5.625-218.5s1.088-217.452-82.792-211.784"
      transform="translate(0 554.854)" fill="none" stroke="#fff" stroke-linecap="round" stroke-linejoin="round"
      stroke-width="5" />
  </g>
</svg>