<svg xmlns="http://www.w3.org/2000/svg" width="16.884" height="16.884" viewBox="0 0 16.884 16.884">
  <path id="Path_9019" data-name="Path 9019" d="M22.7,7.93H10.035a2.078,2.078,0,0,0-2.111,2.111V22.7a2.078,2.078,0,0,0,2.111,2.111H22.7A2.078,2.078,0,0,0,24.808,22.7V10.041A2.077,2.077,0,0,0,22.7,7.93Zm-6.319,5.125A3.286,3.286,0,1,1,12.99,16.34,3.339,3.339,0,0,1,16.379,13.055Zm6.319,9.12c0,.37-.158.528-.528.528H10.562c-.369,0-.528-.158-.528-.528V14.789l1.315.286a4.913,4.913,0,0,0-.217,1.448,5.249,5.249,0,0,0,10.492,0,4.913,4.913,0,0,0-.217-1.448l1.29-.286v7.387Zm0-9.5a.528.528,0,0,1-.528.528H20.06a.528.528,0,0,1-.528-.528V10.567a.528.528,0,0,1,.528-.528H22.17a.528.528,0,0,1,.528.528Z" transform="translate(-7.924 -7.93)" fill="#fff"/>
</svg>
