<svg xmlns="http://www.w3.org/2000/svg" width="16.47" height="16.469" viewBox="0 0 16.47 16.469">
  <path id="Icon_awesome-linkedin-in" data-name="Icon awesome-linkedin-in" d="M3.687,16.47H.272v-11H3.687ZM1.977,3.974a1.987,1.987,0,1,1,1.977-2A1.994,1.994,0,0,1,1.977,3.974Zm14.489,12.5H13.059V11.117c0-1.276-.026-2.912-1.775-2.912-1.775,0-2.047,1.386-2.047,2.82V16.47H5.825v-11H9.1v1.5h.048A3.588,3.588,0,0,1,12.379,5.2c3.456,0,4.091,2.276,4.091,5.231v6.04Z" transform="translate(0 -0.001)" fill="#fff"/>
</svg>
