<svg xmlns="http://www.w3.org/2000/svg" width="18.75" height="30" viewBox="0 0 18.75 30">
  <path id="Icon_awesome-walking" data-name="Icon awesome-walking" d="M12.186,5.624A2.812,2.812,0,1,0,9.374,2.812,2.813,2.813,0,0,0,12.186,5.624Zm5.536,8.735-1.365-.691-.568-1.722A6.388,6.388,0,0,0,9.8,7.5c-2.109-.006-3.275.592-5.466,1.476a5.588,5.588,0,0,0-2.912,2.707l-.393.8a1.881,1.881,0,0,0,.832,2.513,1.85,1.85,0,0,0,2.49-.838l.393-.8a1.862,1.862,0,0,1,.967-.9l1.57-.633-.89,3.556a3.763,3.763,0,0,0,.873,3.445l3.509,3.831a3.781,3.781,0,0,1,.873,1.623l1.072,4.294a1.875,1.875,0,1,0,3.638-.908l-1.3-5.214a3.748,3.748,0,0,0-.873-1.623l-2.666-2.912,1.008-4.025.322.967a3.736,3.736,0,0,0,1.857,2.168l1.365.691a1.85,1.85,0,0,0,2.49-.838,1.9,1.9,0,0,0-.838-2.519ZM4.312,22.6a3.635,3.635,0,0,1-.832,1.26L.551,26.8A1.875,1.875,0,0,0,3.2,29.451l3.48-3.48a3.808,3.808,0,0,0,.832-1.26l.791-1.98c-3.24-3.533-2.267-2.449-2.777-3.146L4.312,22.6Z" transform="translate(-0.002)"/>
</svg>
